<?xml version="1.0" standalone="no"?>
 <!DOCTYPE svg PUBLIC "-//W3C//DTD SVG 1.1//EN" 
 "http://www.w3.org/Graphics/SVG/1.1/DTD/svg11.dtd"> 
<svg
  xmlns:svg="http://www.w3.org/2000/svg"
  xmlns="http://www.w3.org/2000/svg"
  xmlns:xlink="http://www.w3.org/1999/xlink"
  version="1.1"
  width="29.700220cm" height="21.000720cm" viewBox="0 0 297002200 210007200">
<title>SVG Picture created as lanza-platos-F_Fab.svg date 2024/06/27 07:18:38 </title>
  <desc>Picture generated by PCBNEW </desc>
<g style="fill:#000000; fill-opacity:1.000000;stroke:#000000; stroke-opacity:1.000000;
stroke-linecap:round; stroke-linejoin:round;"
 transform="translate(0 0) scale(1 1)">
</g>
<g style="fill:#000000; fill-opacity:0.0; 
stroke:#000000; stroke-width:0.000000; stroke-opacity:1; 
stroke-linecap:round; stroke-linejoin:round;">
</g>
<g style="fill:#000000; fill-opacity:0.0; 
stroke:#000000; stroke-width:100000.000000; stroke-opacity:1; 
stroke-linecap:round; stroke-linejoin:round;">
<path d="M126900000 25125000
L126650000 67750000
" />
<path d="M26250000 68175000
L26275000 25275000
" />
<path d="M26275000 25275000
L126850000 25125000
" />
<path d="M126650000 67750000
L26250000 68175000
" />
<circle cx="123575000.000000" cy="47800000.000000" r="1666666.000000" /> 
<path d="M121075000 47800000
L126075000 47800000
" />
<path d="M123575000 45300000
L123575000 50300000
" />
<circle cx="29600000.000000" cy="47825000.000000" r="1666666.000000" /> 
<path d="M27100000 47825000
L32100000 47825000
" />
<path d="M29600000 45325000
L29600000 50325000
" />
</g>
<g style="fill:#000000; fill-opacity:0.0; 
stroke:#000000; stroke-width:150000.000000; stroke-opacity:1; 
stroke-linecap:round; stroke-linejoin:round;">
<g transform="rotate(-90.000000 118375000.000000 47830000.000000)">
<text x="118375000.000000" y="48330000.000000"
textLength="1909286.000000" font-size="1333333.000000" lengthAdjust="spacingAndGlyphs"
text-anchor="middle" opacity="0">J2</text>
</g>
<g class="stroked-text"><desc>J2</desc>
<path d="M117827380 48163333
L118541666 48163333
L118684523 48210952
L118779761 48306190
L118827380 48449047
L118827380 48544285
" />
<path d="M117922619 47734761
L117875000 47687142
L117827380 47591904
L117827380 47353809
L117875000 47258571
L117922619 47210952
L118017857 47163333
L118113095 47163333
L118255952 47210952
L118827380 47782380
L118827380 47163333
" />
</g><text x="86975000.000000" y="33750000.000000"
textLength="2909286.000000" font-size="1333333.000000" lengthAdjust="spacingAndGlyphs"
text-anchor="middle" opacity="0">1uF</text>
<g class="stroked-text"><desc>1uF</desc>
<path d="M86379761 33702380
L85808333 33702380
" />
<path d="M86094047 33702380
L86094047 32702380
L85998809 32845238
L85903571 32940476
L85808333 32988095
" />
<path d="M87236904 33035714
L87236904 33702380
" />
<path d="M86808333 33035714
L86808333 33559523
L86855952 33654761
L86951190 33702380
L87094047 33702380
L87189285 33654761
L87236904 33607142
" />
<path d="M88046428 33178571
L87713095 33178571
" />
<path d="M87713095 33702380
L87713095 32702380
L88189285 32702380
" />
</g><text x="90875000.000000" y="34950000.000000"
textLength="2147381.000000" font-size="1333333.000000" lengthAdjust="spacingAndGlyphs"
text-anchor="middle" opacity="0">C9</text>
<g class="stroked-text"><desc>C9</desc>
<path d="M90708333 34807142
L90660714 34854761
L90517857 34902380
L90422619 34902380
L90279761 34854761
L90184523 34759523
L90136904 34664285
L90089285 34473809
L90089285 34330952
L90136904 34140476
L90184523 34045238
L90279761 33950000
L90422619 33902380
L90517857 33902380
L90660714 33950000
L90708333 33997619
" />
<path d="M91184523 34902380
L91375000 34902380
L91470238 34854761
L91517857 34807142
L91613095 34664285
L91660714 34473809
L91660714 34092857
L91613095 33997619
L91565476 33950000
L91470238 33902380
L91279761 33902380
L91184523 33950000
L91136904 33997619
L91089285 34092857
L91089285 34330952
L91136904 34426190
L91184523 34473809
L91279761 34521428
L91470238 34521428
L91565476 34473809
L91613095 34426190
L91660714 34330952
" />
</g><text x="61700000.000000" y="48950000.000000"
textLength="5004524.000000" font-size="1333333.000000" lengthAdjust="spacingAndGlyphs"
text-anchor="middle" opacity="0">NE567</text>
<g class="stroked-text"><desc>NE567</desc>
<path d="M59533333 48902380
L59533333 47902380
L60104761 48902380
L60104761 47902380
" />
<path d="M60580952 48378571
L60914285 48378571
" />
<path d="M61057142 48902380
L60580952 48902380
L60580952 47902380
L61057142 47902380
" />
<path d="M61961904 47902380
L61485714 47902380
L61438095 48378571
L61485714 48330952
L61580952 48283333
L61819047 48283333
L61914285 48330952
L61961904 48378571
L62009523 48473809
L62009523 48711904
L61961904 48807142
L61914285 48854761
L61819047 48902380
L61580952 48902380
L61485714 48854761
L61438095 48807142
" />
<path d="M62866666 47902380
L62676190 47902380
L62580952 47950000
L62533333 47997619
L62438095 48140476
L62390476 48330952
L62390476 48711904
L62438095 48807142
L62485714 48854761
L62580952 48902380
L62771428 48902380
L62866666 48854761
L62914285 48807142
L62961904 48711904
L62961904 48473809
L62914285 48378571
L62866666 48330952
L62771428 48283333
L62580952 48283333
L62485714 48330952
L62438095 48378571
L62390476 48473809
" />
<path d="M63295238 47902380
L63961904 47902380
L63533333 48902380
" />
</g><text x="61450000.000000" y="47100000.000000"
textLength="2195000.000000" font-size="1333333.000000" lengthAdjust="spacingAndGlyphs"
text-anchor="middle" opacity="0">U1</text>
<g class="stroked-text"><desc>U1</desc>
<path d="M60688095 46052380
L60688095 46861904
L60735714 46957142
L60783333 47004761
L60878571 47052380
L61069047 47052380
L61164285 47004761
L61211904 46957142
L61259523 46861904
L61259523 46052380
" />
<path d="M62259523 47052380
L61688095 47052380
" />
<path d="M61973809 47052380
L61973809 46052380
L61878571 46195238
L61783333 46290476
L61688095 46338095
" />
</g><g transform="rotate(-90.000000 54000000.000000 44650000.000000)">
<text x="54000000.000000" y="45150000.000000"
textLength="5671190.000000" font-size="1333333.000000" lengthAdjust="spacingAndGlyphs"
text-anchor="middle" opacity="0">1.5meg</text>
</g>
<g class="stroked-text"><desc>1.5meg</desc>
<path d="M54452380 46626190
L54452380 47197619
" />
<path d="M54452380 46911904
L53452380 46911904
L53595238 47007142
L53690476 47102380
L53738095 47197619
" />
<path d="M54357142 46197619
L54404761 46150000
L54452380 46197619
L54404761 46245238
L54357142 46197619
L54452380 46197619
" />
<path d="M53452380 45245238
L53452380 45721428
L53928571 45769047
L53880952 45721428
L53833333 45626190
L53833333 45388095
L53880952 45292857
L53928571 45245238
L54023809 45197619
L54261904 45197619
L54357142 45245238
L54404761 45292857
L54452380 45388095
L54452380 45626190
L54404761 45721428
L54357142 45769047
" />
<path d="M54452380 44769047
L53785714 44769047
" />
<path d="M53880952 44769047
L53833333 44721428
L53785714 44626190
L53785714 44483333
L53833333 44388095
L53928571 44340476
L54452380 44340476
" />
<path d="M53928571 44340476
L53833333 44292857
L53785714 44197619
L53785714 44054761
L53833333 43959523
L53928571 43911904
L54452380 43911904
" />
<path d="M54404761 43054761
L54452380 43150000
L54452380 43340476
L54404761 43435714
L54309523 43483333
L53928571 43483333
L53833333 43435714
L53785714 43340476
L53785714 43150000
L53833333 43054761
L53928571 43007142
L54023809 43007142
L54119047 43483333
" />
<path d="M53785714 42150000
L54595238 42150000
L54690476 42197619
L54738095 42245238
L54785714 42340476
L54785714 42483333
L54738095 42578571
" />
<path d="M54404761 42150000
L54452380 42245238
L54452380 42435714
L54404761 42530952
L54357142 42578571
L54261904 42626190
L53976190 42626190
L53880952 42578571
L53833333 42530952
L53785714 42435714
L53785714 42245238
L53833333 42150000
" />
</g><g transform="rotate(-90.000000 55375000.000000 38200000.000000)">
<text x="55375000.000000" y="38700000.000000"
textLength="2147381.000000" font-size="1333333.000000" lengthAdjust="spacingAndGlyphs"
text-anchor="middle" opacity="0">R2</text>
</g>
<g class="stroked-text"><desc>R2</desc>
<path d="M55827380 38366666
L55351190 38700000
" />
<path d="M55827380 38938095
L54827380 38938095
L54827380 38557142
L54875000 38461904
L54922619 38414285
L55017857 38366666
L55160714 38366666
L55255952 38414285
L55303571 38461904
L55351190 38557142
L55351190 38938095
" />
<path d="M54922619 37985714
L54875000 37938095
L54827380 37842857
L54827380 37604761
L54875000 37509523
L54922619 37461904
L55017857 37414285
L55113095 37414285
L55255952 37461904
L55827380 38033333
L55827380 37414285
" />
</g><text x="34575000.000000" y="55000000.000000"
textLength="2814048.000000" font-size="1333333.000000" lengthAdjust="spacingAndGlyphs"
text-anchor="middle" opacity="0">BAT</text>
<g class="stroked-text"><desc>BAT</desc>
<path d="M33836904 54428571
L33979761 54476190
L34027380 54523809
L34075000 54619047
L34075000 54761904
L34027380 54857142
L33979761 54904761
L33884523 54952380
L33503571 54952380
L33503571 53952380
L33836904 53952380
L33932142 54000000
L33979761 54047619
L34027380 54142857
L34027380 54238095
L33979761 54333333
L33932142 54380952
L33836904 54428571
L33503571 54428571
" />
<path d="M34455952 54666666
L34932142 54666666
" />
<path d="M34360714 54952380
L34694047 53952380
L35027380 54952380
" />
<path d="M35217857 53952380
L35789285 53952380
" />
<path d="M35503571 54952380
L35503571 53952380
" />
</g><g transform="rotate(-90.000000 38425000.000000 54620000.000000)">
<text x="38425000.000000" y="55120000.000000"
textLength="1909286.000000" font-size="1333333.000000" lengthAdjust="spacingAndGlyphs"
text-anchor="middle" opacity="0">J3</text>
</g>
<g class="stroked-text"><desc>J3</desc>
<path d="M37877380 54953333
L38591666 54953333
L38734523 55000952
L38829761 55096190
L38877380 55239047
L38877380 55334285
" />
<path d="M37877380 54572380
L37877380 53953333
L38258333 54286666
L38258333 54143809
L38305952 54048571
L38353571 54000952
L38448809 53953333
L38686904 53953333
L38782142 54000952
L38829761 54048571
L38877380 54143809
L38877380 54429523
L38829761 54524761
L38782142 54572380
" />
</g><g transform="rotate(-90.000000 71050000.000000 37900000.000000)">
<text x="71050000.000000" y="38400000.000000"
textLength="2575952.000000" font-size="1333333.000000" lengthAdjust="spacingAndGlyphs"
text-anchor="middle" opacity="0">4.7</text>
</g>
<g class="stroked-text"><desc>4.7</desc>
<path d="M70835714 38423809
L71502380 38423809
" />
<path d="M70454761 38661904
L71169047 38900000
L71169047 38280952
" />
<path d="M71407142 37900000
L71454761 37852380
L71502380 37900000
L71454761 37947619
L71407142 37900000
L71502380 37900000
" />
<path d="M70502380 37519047
L70502380 36852380
L71502380 37280952
" />
</g><g transform="rotate(-90.000000 71400000.000000 31475000.000000)">
<text x="71400000.000000" y="31975000.000000"
textLength="2147381.000000" font-size="1333333.000000" lengthAdjust="spacingAndGlyphs"
text-anchor="middle" opacity="0">R3</text>
</g>
<g class="stroked-text"><desc>R3</desc>
<path d="M71852380 31641666
L71376190 31975000
" />
<path d="M71852380 32213095
L70852380 32213095
L70852380 31832142
L70900000 31736904
L70947619 31689285
L71042857 31641666
L71185714 31641666
L71280952 31689285
L71328571 31736904
L71376190 31832142
L71376190 32213095
" />
<path d="M70852380 31308333
L70852380 30689285
L71233333 31022619
L71233333 30879761
L71280952 30784523
L71328571 30736904
L71423809 30689285
L71661904 30689285
L71757142 30736904
L71804761 30784523
L71852380 30879761
L71852380 31165476
L71804761 31260714
L71757142 31308333
" />
</g><g transform="rotate(-90.000000 66900000.000000 56175000.000000)">
<text x="66900000.000000" y="56675000.000000"
textLength="4337857.000000" font-size="1333333.000000" lengthAdjust="spacingAndGlyphs"
text-anchor="middle" opacity="0">0.1uF</text>
</g>
<g class="stroked-text"><desc>0.1uF</desc>
<path d="M66352380 57817857
L66352380 57722619
L66400000 57627380
L66447619 57579761
L66542857 57532142
L66733333 57484523
L66971428 57484523
L67161904 57532142
L67257142 57579761
L67304761 57627380
L67352380 57722619
L67352380 57817857
L67304761 57913095
L67257142 57960714
L67161904 58008333
L66971428 58055952
L66733333 58055952
L66542857 58008333
L66447619 57960714
L66400000 57913095
L66352380 57817857
" />
<path d="M67257142 57055952
L67304761 57008333
L67352380 57055952
L67304761 57103571
L67257142 57055952
L67352380 57055952
" />
<path d="M67352380 56055952
L67352380 56627380
" />
<path d="M67352380 56341666
L66352380 56341666
L66495238 56436904
L66590476 56532142
L66638095 56627380
" />
<path d="M66685714 55198809
L67352380 55198809
" />
<path d="M66685714 55627380
L67209523 55627380
L67304761 55579761
L67352380 55484523
L67352380 55341666
L67304761 55246428
L67257142 55198809
" />
<path d="M66828571 54389285
L66828571 54722619
" />
<path d="M67352380 54722619
L66352380 54722619
L66352380 54246428
" />
</g></g>
<g style="fill:#000000; fill-opacity:0.0; 
stroke:#000000; stroke-width:141000.000000; stroke-opacity:1; 
stroke-linecap:round; stroke-linejoin:round;">
<text x="67025000.000000" y="61945000.000000"
textLength="2030238.000000" font-size="1253333.000000" lengthAdjust="spacingAndGlyphs"
text-anchor="middle" opacity="0">C8</text>
<g class="stroked-text"><desc>C8</desc>
<path d="M66868333 61810714
L66823571 61855476
L66689285 61900238
L66599761 61900238
L66465476 61855476
L66375952 61765952
L66331190 61676428
L66286428 61497380
L66286428 61363095
L66331190 61184047
L66375952 61094523
L66465476 61005000
L66599761 60960238
L66689285 60960238
L66823571 61005000
L66868333 61049761
" />
<path d="M67405476 61363095
L67315952 61318333
L67271190 61273571
L67226428 61184047
L67226428 61139285
L67271190 61049761
L67315952 61005000
L67405476 60960238
L67584523 60960238
L67674047 61005000
L67718809 61049761
L67763571 61139285
L67763571 61184047
L67718809 61273571
L67674047 61318333
L67584523 61363095
L67405476 61363095
L67315952 61407857
L67271190 61452619
L67226428 61542142
L67226428 61721190
L67271190 61810714
L67315952 61855476
L67405476 61900238
L67584523 61900238
L67674047 61855476
L67718809 61810714
L67763571 61721190
L67763571 61542142
L67718809 61452619
L67674047 61407857
L67584523 61363095
" />
</g></g>
<g style="fill:#000000; fill-opacity:0.0; 
stroke:#000000; stroke-width:150000.000000; stroke-opacity:1; 
stroke-linecap:round; stroke-linejoin:round;">
<text x="46050000.000000" y="52075000.000000"
textLength="2897586.000000" font-size="1333333.000000" lengthAdjust="spacingAndGlyphs"
text-anchor="middle" opacity="0">10k</text>
<g class="stroked-text"><desc>10k</desc>
<path d="M45454761 52027380
L44883333 52027380
" />
<path d="M45169047 52027380
L45169047 51027380
L45073809 51170238
L44978571 51265476
L44883333 51313095
" />
<path d="M46073809 51027380
L46169047 51027380
L46264285 51075000
L46311904 51122619
L46359523 51217857
L46407142 51408333
L46407142 51646428
L46359523 51836904
L46311904 51932142
L46264285 51979761
L46169047 52027380
L46073809 52027380
L45978571 51979761
L45930952 51932142
L45883333 51836904
L45835714 51646428
L45835714 51408333
L45883333 51217857
L45930952 51122619
L45978571 51075000
L46073809 51027380
" />
<path d="M46835714 52027380
L46835714 51027380
" />
<path d="M46930952 51646428
L47216666 52027380
" />
<path d="M47216666 51360714
L46835714 51741666
" />
</g><text x="43100000.000000" y="54265000.000000"
textLength="2386429.000000" font-size="1040000.000000" lengthAdjust="spacingAndGlyphs"
text-anchor="middle" opacity="0">RV1</text>
<g class="stroked-text"><desc>RV1</desc>
<path d="M42635714 54227857
L42375714 53856428
" />
<path d="M42190000 54227857
L42190000 53447857
L42487142 53447857
L42561428 53485000
L42598571 53522142
L42635714 53596428
L42635714 53707857
L42598571 53782142
L42561428 53819285
L42487142 53856428
L42190000 53856428
" />
<path d="M42858571 53447857
L43118571 54227857
L43378571 53447857
" />
<path d="M44047142 54227857
L43601428 54227857
" />
<path d="M43824285 54227857
L43824285 53447857
L43750000 53559285
L43675714 53633571
L43601428 53670714
" />
</g><text x="61000000.000000" y="39675000.000000"
textLength="4337857.000000" font-size="1333333.000000" lengthAdjust="spacingAndGlyphs"
text-anchor="middle" opacity="0">0.1uF</text>
<g class="stroked-text"><desc>0.1uF</desc>
<path d="M59357142 38627380
L59452380 38627380
L59547619 38675000
L59595238 38722619
L59642857 38817857
L59690476 39008333
L59690476 39246428
L59642857 39436904
L59595238 39532142
L59547619 39579761
L59452380 39627380
L59357142 39627380
L59261904 39579761
L59214285 39532142
L59166666 39436904
L59119047 39246428
L59119047 39008333
L59166666 38817857
L59214285 38722619
L59261904 38675000
L59357142 38627380
" />
<path d="M60119047 39532142
L60166666 39579761
L60119047 39627380
L60071428 39579761
L60119047 39532142
L60119047 39627380
" />
<path d="M61119047 39627380
L60547619 39627380
" />
<path d="M60833333 39627380
L60833333 38627380
L60738095 38770238
L60642857 38865476
L60547619 38913095
" />
<path d="M61976190 38960714
L61976190 39627380
" />
<path d="M61547619 38960714
L61547619 39484523
L61595238 39579761
L61690476 39627380
L61833333 39627380
L61928571 39579761
L61976190 39532142
" />
<path d="M62785714 39103571
L62452380 39103571
" />
<path d="M62452380 39627380
L62452380 38627380
L62928571 38627380
" />
</g></g>
<g style="fill:#000000; fill-opacity:0.0; 
stroke:#000000; stroke-width:141000.000000; stroke-opacity:1; 
stroke-linecap:round; stroke-linejoin:round;">
<text x="60475000.000000" y="37295000.000000"
textLength="2030238.000000" font-size="1253333.000000" lengthAdjust="spacingAndGlyphs"
text-anchor="middle" opacity="0">C3</text>
<g class="stroked-text"><desc>C3</desc>
<path d="M60318333 37160714
L60273571 37205476
L60139285 37250238
L60049761 37250238
L59915476 37205476
L59825952 37115952
L59781190 37026428
L59736428 36847380
L59736428 36713095
L59781190 36534047
L59825952 36444523
L59915476 36355000
L60049761 36310238
L60139285 36310238
L60273571 36355000
L60318333 36399761
" />
<path d="M60631666 36310238
L61213571 36310238
L60900238 36668333
L61034523 36668333
L61124047 36713095
L61168809 36757857
L61213571 36847380
L61213571 37071190
L61168809 37160714
L61124047 37205476
L61034523 37250238
L60765952 37250238
L60676428 37205476
L60631666 37160714
" />
</g></g>
<g style="fill:#000000; fill-opacity:0.0; 
stroke:#000000; stroke-width:150000.000000; stroke-opacity:1; 
stroke-linecap:round; stroke-linejoin:round;">
<text x="79375000.000000" y="46750000.000000"
textLength="6945205.000000" font-size="1333333.000000" lengthAdjust="spacingAndGlyphs"
text-anchor="middle" opacity="0">LM555xM</text>
<g class="stroked-text"><desc>LM555xM</desc>
<path d="M76708333 46702380
L76232142 46702380
L76232142 45702380
" />
<path d="M77041666 46702380
L77041666 45702380
L77375000 46416666
L77708333 45702380
L77708333 46702380
" />
<path d="M78660714 45702380
L78184523 45702380
L78136904 46178571
L78184523 46130952
L78279761 46083333
L78517857 46083333
L78613095 46130952
L78660714 46178571
L78708333 46273809
L78708333 46511904
L78660714 46607142
L78613095 46654761
L78517857 46702380
L78279761 46702380
L78184523 46654761
L78136904 46607142
" />
<path d="M79613095 45702380
L79136904 45702380
L79089285 46178571
L79136904 46130952
L79232142 46083333
L79470238 46083333
L79565476 46130952
L79613095 46178571
L79660714 46273809
L79660714 46511904
L79613095 46607142
L79565476 46654761
L79470238 46702380
L79232142 46702380
L79136904 46654761
L79089285 46607142
" />
<path d="M80565476 45702380
L80089285 45702380
L80041666 46178571
L80089285 46130952
L80184523 46083333
L80422619 46083333
L80517857 46130952
L80565476 46178571
L80613095 46273809
L80613095 46511904
L80565476 46607142
L80517857 46654761
L80422619 46702380
L80184523 46702380
L80089285 46654761
L80041666 46607142
" />
<path d="M80946428 46702380
L81470238 46035714
" />
<path d="M80946428 46035714
L81470238 46702380
" />
<path d="M81851190 46702380
L81851190 45702380
L82184523 46416666
L82517857 45702380
L82517857 46702380
" />
</g><text x="78725000.000000" y="47925000.000000"
textLength="2195000.000000" font-size="1333333.000000" lengthAdjust="spacingAndGlyphs"
text-anchor="middle" opacity="0">U2</text>
<g class="stroked-text"><desc>U2</desc>
<path d="M77963095 46877380
L77963095 47686904
L78010714 47782142
L78058333 47829761
L78153571 47877380
L78344047 47877380
L78439285 47829761
L78486904 47782142
L78534523 47686904
L78534523 46877380
" />
<path d="M78963095 46972619
L79010714 46925000
L79105952 46877380
L79344047 46877380
L79439285 46925000
L79486904 46972619
L79534523 47067857
L79534523 47163095
L79486904 47305952
L78915476 47877380
L79534523 47877380
" />
</g><text x="54375000.000000" y="55175000.000000"
textLength="5290238.000000" font-size="1333333.000000" lengthAdjust="spacingAndGlyphs"
text-anchor="middle" opacity="0">0.47uF</text>
<g class="stroked-text"><desc>0.47uF</desc>
<path d="M52255952 54127380
L52351190 54127380
L52446428 54175000
L52494047 54222619
L52541666 54317857
L52589285 54508333
L52589285 54746428
L52541666 54936904
L52494047 55032142
L52446428 55079761
L52351190 55127380
L52255952 55127380
L52160714 55079761
L52113095 55032142
L52065476 54936904
L52017857 54746428
L52017857 54508333
L52065476 54317857
L52113095 54222619
L52160714 54175000
L52255952 54127380
" />
<path d="M53017857 55032142
L53065476 55079761
L53017857 55127380
L52970238 55079761
L53017857 55032142
L53017857 55127380
" />
<path d="M53922619 54460714
L53922619 55127380
" />
<path d="M53684523 54079761
L53446428 54794047
L54065476 54794047
" />
<path d="M54351190 54127380
L55017857 54127380
L54589285 55127380
" />
<path d="M55827380 54460714
L55827380 55127380
" />
<path d="M55398809 54460714
L55398809 54984523
L55446428 55079761
L55541666 55127380
L55684523 55127380
L55779761 55079761
L55827380 55032142
" />
<path d="M56636904 54603571
L56303571 54603571
" />
<path d="M56303571 55127380
L56303571 54127380
L56779761 54127380
" />
</g></g>
<g style="fill:#000000; fill-opacity:0.0; 
stroke:#000000; stroke-width:141000.000000; stroke-opacity:1; 
stroke-linecap:round; stroke-linejoin:round;">
<text x="57950000.000000" y="55070000.000000"
textLength="2030238.000000" font-size="1253333.000000" lengthAdjust="spacingAndGlyphs"
text-anchor="middle" opacity="0">C2</text>
<g class="stroked-text"><desc>C2</desc>
<path d="M57793333 54935714
L57748571 54980476
L57614285 55025238
L57524761 55025238
L57390476 54980476
L57300952 54890952
L57256190 54801428
L57211428 54622380
L57211428 54488095
L57256190 54309047
L57300952 54219523
L57390476 54130000
L57524761 54085238
L57614285 54085238
L57748571 54130000
L57793333 54174761
" />
<path d="M58151428 54174761
L58196190 54130000
L58285714 54085238
L58509523 54085238
L58599047 54130000
L58643809 54174761
L58688571 54264285
L58688571 54353809
L58643809 54488095
L58106666 55025238
L58688571 55025238
" />
</g></g>
<g style="fill:#000000; fill-opacity:0.0; 
stroke:#000000; stroke-width:150000.000000; stroke-opacity:1; 
stroke-linecap:round; stroke-linejoin:round;">
<text x="70525000.000000" y="43950000.000000"
textLength="3849967.000000" font-size="1333333.000000" lengthAdjust="spacingAndGlyphs"
text-anchor="middle" opacity="0">47uF</text>
<g class="stroked-text"><desc>47uF</desc>
<path d="M69358333 43235714
L69358333 43902380
" />
<path d="M69120238 42854761
L68882142 43569047
L69501190 43569047
" />
<path d="M69786904 42902380
L70453571 42902380
L70025000 43902380
" />
<path d="M71263095 43235714
L71263095 43902380
" />
<path d="M70834523 43235714
L70834523 43759523
L70882142 43854761
L70977380 43902380
L71120238 43902380
L71215476 43854761
L71263095 43807142
" />
<path d="M72072619 43378571
L71739285 43378571
" />
<path d="M71739285 43902380
L71739285 42902380
L72215476 42902380
" />
</g><text x="70525000.000000" y="47700000.000000"
textLength="3099762.000000" font-size="1333333.000000" lengthAdjust="spacingAndGlyphs"
text-anchor="middle" opacity="0">C10</text>
<g class="stroked-text"><desc>C10</desc>
<path d="M69882142 47557142
L69834523 47604761
L69691666 47652380
L69596428 47652380
L69453571 47604761
L69358333 47509523
L69310714 47414285
L69263095 47223809
L69263095 47080952
L69310714 46890476
L69358333 46795238
L69453571 46700000
L69596428 46652380
L69691666 46652380
L69834523 46700000
L69882142 46747619
" />
<path d="M70834523 47652380
L70263095 47652380
" />
<path d="M70548809 47652380
L70548809 46652380
L70453571 46795238
L70358333 46890476
L70263095 46938095
" />
<path d="M71453571 46652380
L71548809 46652380
L71644047 46700000
L71691666 46747619
L71739285 46842857
L71786904 47033333
L71786904 47271428
L71739285 47461904
L71691666 47557142
L71644047 47604761
L71548809 47652380
L71453571 47652380
L71358333 47604761
L71310714 47557142
L71263095 47461904
L71215476 47271428
L71215476 47033333
L71263095 46842857
L71310714 46747619
L71358333 46700000
L71453571 46652380
" />
</g><text x="48275000.000000" y="40300000.000000"
textLength="5290238.000000" font-size="1333333.000000" lengthAdjust="spacingAndGlyphs"
text-anchor="middle" opacity="0">0.22uF</text>
<g class="stroked-text"><desc>0.22uF</desc>
<path d="M46155952 39252380
L46251190 39252380
L46346428 39300000
L46394047 39347619
L46441666 39442857
L46489285 39633333
L46489285 39871428
L46441666 40061904
L46394047 40157142
L46346428 40204761
L46251190 40252380
L46155952 40252380
L46060714 40204761
L46013095 40157142
L45965476 40061904
L45917857 39871428
L45917857 39633333
L45965476 39442857
L46013095 39347619
L46060714 39300000
L46155952 39252380
" />
<path d="M46917857 40157142
L46965476 40204761
L46917857 40252380
L46870238 40204761
L46917857 40157142
L46917857 40252380
" />
<path d="M47346428 39347619
L47394047 39300000
L47489285 39252380
L47727380 39252380
L47822619 39300000
L47870238 39347619
L47917857 39442857
L47917857 39538095
L47870238 39680952
L47298809 40252380
L47917857 40252380
" />
<path d="M48298809 39347619
L48346428 39300000
L48441666 39252380
L48679761 39252380
L48775000 39300000
L48822619 39347619
L48870238 39442857
L48870238 39538095
L48822619 39680952
L48251190 40252380
L48870238 40252380
" />
<path d="M49727380 39585714
L49727380 40252380
" />
<path d="M49298809 39585714
L49298809 40109523
L49346428 40204761
L49441666 40252380
L49584523 40252380
L49679761 40204761
L49727380 40157142
" />
<path d="M50536904 39728571
L50203571 39728571
" />
<path d="M50203571 40252380
L50203571 39252380
L50679761 39252380
" />
</g></g>
<g style="fill:#000000; fill-opacity:0.0; 
stroke:#000000; stroke-width:141000.000000; stroke-opacity:1; 
stroke-linecap:round; stroke-linejoin:round;">
<text x="48275000.000000" y="42770000.000000"
textLength="2030238.000000" font-size="1253333.000000" lengthAdjust="spacingAndGlyphs"
text-anchor="middle" opacity="0">C1</text>
<g class="stroked-text"><desc>C1</desc>
<path d="M48118333 42635714
L48073571 42680476
L47939285 42725238
L47849761 42725238
L47715476 42680476
L47625952 42590952
L47581190 42501428
L47536428 42322380
L47536428 42188095
L47581190 42009047
L47625952 41919523
L47715476 41830000
L47849761 41785238
L47939285 41785238
L48073571 41830000
L48118333 41874761
" />
<path d="M49013571 42725238
L48476428 42725238
" />
<path d="M48745000 42725238
L48745000 41785238
L48655476 41919523
L48565952 42009047
L48476428 42053809
" />
</g></g>
<g style="fill:#000000; fill-opacity:0.0; 
stroke:#000000; stroke-width:150000.000000; stroke-opacity:1; 
stroke-linecap:round; stroke-linejoin:round;">
<g transform="rotate(-90.000000 60725000.000000 59500000.000000)">
<text x="60725000.000000" y="60000000.000000"
textLength="4326157.000000" font-size="1333333.000000" lengthAdjust="spacingAndGlyphs"
text-anchor="middle" opacity="0">2.2uF</text>
</g>
<g class="stroked-text"><desc>2.2uF</desc>
<path d="M60272619 61380952
L60225000 61333333
L60177380 61238095
L60177380 60999999
L60225000 60904761
L60272619 60857142
L60367857 60809523
L60463095 60809523
L60605952 60857142
L61177380 61428571
L61177380 60809523
" />
<path d="M61082142 60380952
L61129761 60333333
L61177380 60380952
L61129761 60428571
L61082142 60380952
L61177380 60380952
" />
<path d="M60272619 59952380
L60225000 59904761
L60177380 59809523
L60177380 59571428
L60225000 59476190
L60272619 59428571
L60367857 59380952
L60463095 59380952
L60605952 59428571
L61177380 59999999
L61177380 59380952
" />
<path d="M60510714 58523809
L61177380 58523809
" />
<path d="M60510714 58952380
L61034523 58952380
L61129761 58904761
L61177380 58809523
L61177380 58666666
L61129761 58571428
L61082142 58523809
" />
<path d="M60653571 57714285
L60653571 58047619
" />
<path d="M61177380 58047619
L60177380 58047619
L60177380 57571428
" />
</g><text x="62500000.000000" y="64600000.000000"
textLength="2147381.000000" font-size="1333333.000000" lengthAdjust="spacingAndGlyphs"
text-anchor="middle" opacity="0">C7</text>
<g class="stroked-text"><desc>C7</desc>
<path d="M62333333 64457142
L62285714 64504761
L62142857 64552380
L62047619 64552380
L61904761 64504761
L61809523 64409523
L61761904 64314285
L61714285 64123809
L61714285 63980952
L61761904 63790476
L61809523 63695238
L61904761 63600000
L62047619 63552380
L62142857 63552380
L62285714 63600000
L62333333 63647619
" />
<path d="M62666666 63552380
L63333333 63552380
L62904761 64552380
" />
</g><g transform="rotate(-90.000000 71600000.000000 55025000.000000)">
<text x="71600000.000000" y="55525000.000000"
textLength="2575952.000000" font-size="1333333.000000" lengthAdjust="spacingAndGlyphs"
text-anchor="middle" opacity="0">2.2</text>
</g>
<g class="stroked-text"><desc>2.2</desc>
<path d="M71147619 56025000
L71100000 55977380
L71052380 55882142
L71052380 55644047
L71100000 55548809
L71147619 55501190
L71242857 55453571
L71338095 55453571
L71480952 55501190
L72052380 56072619
L72052380 55453571
" />
<path d="M71957142 55025000
L72004761 54977380
L72052380 55025000
L72004761 55072619
L71957142 55025000
L72052380 55025000
" />
<path d="M71147619 54596428
L71100000 54548809
L71052380 54453571
L71052380 54215476
L71100000 54120238
L71147619 54072619
L71242857 54025000
L71338095 54025000
L71480952 54072619
L72052380 54644047
L72052380 54025000
" />
</g><g transform="rotate(-90.000000 74525000.000000 57725000.000000)">
<text x="74525000.000000" y="58225000.000000"
textLength="2147381.000000" font-size="1333333.000000" lengthAdjust="spacingAndGlyphs"
text-anchor="middle" opacity="0">R5</text>
</g>
<g class="stroked-text"><desc>R5</desc>
<path d="M74977380 57891666
L74501190 58225000
" />
<path d="M74977380 58463095
L73977380 58463095
L73977380 58082142
L74025000 57986904
L74072619 57939285
L74167857 57891666
L74310714 57891666
L74405952 57939285
L74453571 57986904
L74501190 58082142
L74501190 58463095
" />
<path d="M73977380 56986904
L73977380 57463095
L74453571 57510714
L74405952 57463095
L74358333 57367857
L74358333 57129761
L74405952 57034523
L74453571 56986904
L74548809 56939285
L74786904 56939285
L74882142 56986904
L74929761 57034523
L74977380 57129761
L74977380 57367857
L74929761 57463095
L74882142 57510714
" />
</g><g transform="rotate(-90.000000 48050000.000000 59700000.000000)">
<text x="48050000.000000" y="60200000.000000"
textLength="3861667.000000" font-size="1333333.000000" lengthAdjust="spacingAndGlyphs"
text-anchor="middle" opacity="0">47uF</text>
</g>
<g class="stroked-text"><desc>47uF</desc>
<path d="M47835714 60866666
L48502380 60866666
" />
<path d="M47454761 61104761
L48169047 61342857
L48169047 60723809
" />
<path d="M47502380 60438095
L47502380 59771428
L48502380 60200000
" />
<path d="M47835714 58961904
L48502380 58961904
" />
<path d="M47835714 59390476
L48359523 59390476
L48454761 59342857
L48502380 59247619
L48502380 59104761
L48454761 59009523
L48407142 58961904
" />
<path d="M47978571 58152380
L47978571 58485714
" />
<path d="M48502380 58485714
L47502380 58485714
L47502380 58009523
" />
</g><text x="49375000.000000" y="64075000.000000"
textLength="2147381.000000" font-size="1333333.000000" lengthAdjust="spacingAndGlyphs"
text-anchor="middle" opacity="0">C4</text>
<g class="stroked-text"><desc>C4</desc>
<path d="M49208333 63932142
L49160714 63979761
L49017857 64027380
L48922619 64027380
L48779761 63979761
L48684523 63884523
L48636904 63789285
L48589285 63598809
L48589285 63455952
L48636904 63265476
L48684523 63170238
L48779761 63075000
L48922619 63027380
L49017857 63027380
L49160714 63075000
L49208333 63122619
" />
<path d="M50065476 63360714
L50065476 64027380
" />
<path d="M49827380 62979761
L49589285 63694047
L50208333 63694047
" />
</g><g transform="rotate(-90.000000 87075000.000000 46150000.000000)">
<text x="87075000.000000" y="46650000.000000"
textLength="1195000.000000" font-size="1333333.000000" lengthAdjust="spacingAndGlyphs"
text-anchor="middle" opacity="0">D</text>
</g>
<g class="stroked-text"><desc>D</desc>
<path d="M87527380 46411904
L86527380 46411904
L86527380 46173809
L86575000 46030952
L86670238 45935714
L86765476 45888095
L86955952 45840476
L87098809 45840476
L87289285 45888095
L87384523 45935714
L87479761 46030952
L87527380 46173809
L87527380 46411904
" />
</g><g transform="rotate(-90.000000 84975000.000000 49600000.000000)">
<text x="84975000.000000" y="50100000.000000"
textLength="1195000.000000" font-size="1333333.000000" lengthAdjust="spacingAndGlyphs"
text-anchor="middle" opacity="0">K</text>
</g>
<g class="stroked-text"><desc>K</desc>
<path d="M85427380 49861904
L84427380 49861904
" />
<path d="M85427380 49290476
L84855952 49719047
" />
<path d="M84427380 49290476
L84998809 49861904
" />
</g><g transform="rotate(-90.000000 87175000.000000 43950000.000000)">
<text x="87175000.000000" y="44450000.000000"
textLength="2147381.000000" font-size="1333333.000000" lengthAdjust="spacingAndGlyphs"
text-anchor="middle" opacity="0">D2</text>
</g>
<g class="stroked-text"><desc>D2</desc>
<path d="M87627380 44688095
L86627380 44688095
L86627380 44450000
L86675000 44307142
L86770238 44211904
L86865476 44164285
L87055952 44116666
L87198809 44116666
L87389285 44164285
L87484523 44211904
L87579761 44307142
L87627380 44450000
L87627380 44688095
" />
<path d="M86722619 43735714
L86675000 43688095
L86627380 43592857
L86627380 43354761
L86675000 43259523
L86722619 43211904
L86817857 43164285
L86913095 43164285
L87055952 43211904
L87627380 43783333
L87627380 43164285
" />
</g><text x="77825000.000000" y="38600000.000000"
textLength="2909286.000000" font-size="1333333.000000" lengthAdjust="spacingAndGlyphs"
text-anchor="middle" opacity="0">10k</text>
<g class="stroked-text"><desc>10k</desc>
<path d="M77229761 38552380
L76658333 38552380
" />
<path d="M76944047 38552380
L76944047 37552380
L76848809 37695238
L76753571 37790476
L76658333 37838095
" />
<path d="M77848809 37552380
L77944047 37552380
L78039285 37600000
L78086904 37647619
L78134523 37742857
L78182142 37933333
L78182142 38171428
L78134523 38361904
L78086904 38457142
L78039285 38504761
L77944047 38552380
L77848809 38552380
L77753571 38504761
L77705952 38457142
L77658333 38361904
L77610714 38171428
L77610714 37933333
L77658333 37742857
L77705952 37647619
L77753571 37600000
L77848809 37552380
" />
<path d="M78610714 38552380
L78610714 37552380
" />
<path d="M78705952 38171428
L78991666 38552380
" />
<path d="M78991666 37885714
L78610714 38266666
" />
</g><text x="77525000.000000" y="36050000.000000"
textLength="2147381.000000" font-size="1333333.000000" lengthAdjust="spacingAndGlyphs"
text-anchor="middle" opacity="0">R6</text>
<g class="stroked-text"><desc>R6</desc>
<path d="M77358333 36002380
L77025000 35526190
" />
<path d="M76786904 36002380
L76786904 35002380
L77167857 35002380
L77263095 35050000
L77310714 35097619
L77358333 35192857
L77358333 35335714
L77310714 35430952
L77263095 35478571
L77167857 35526190
L76786904 35526190
" />
<path d="M78215476 35002380
L78025000 35002380
L77929761 35050000
L77882142 35097619
L77786904 35240476
L77739285 35430952
L77739285 35811904
L77786904 35907142
L77834523 35954761
L77929761 36002380
L78120238 36002380
L78215476 35954761
L78263095 35907142
L78310714 35811904
L78310714 35573809
L78263095 35478571
L78215476 35430952
L78120238 35383333
L77929761 35383333
L77834523 35430952
L77786904 35478571
L77739285 35573809
" />
</g><g transform="rotate(-90.000000 54850000.000000 60050000.000000)">
<text x="54850000.000000" y="60550000.000000"
textLength="2909286.000000" font-size="1333333.000000" lengthAdjust="spacingAndGlyphs"
text-anchor="middle" opacity="0">1uF</text>
</g>
<g class="stroked-text"><desc>1uF</desc>
<path d="M55302380 60645238
L55302380 61216666
" />
<path d="M55302380 60930952
L54302380 60930952
L54445238 61026190
L54540476 61121428
L54588095 61216666
" />
<path d="M54635714 59788095
L55302380 59788095
" />
<path d="M54635714 60216666
L55159523 60216666
L55254761 60169047
L55302380 60073809
L55302380 59930952
L55254761 59835714
L55207142 59788095
" />
<path d="M54778571 58978571
L54778571 59311904
" />
<path d="M55302380 59311904
L54302380 59311904
L54302380 58835714
" />
</g><text x="56625000.000000" y="64475000.000000"
textLength="2147381.000000" font-size="1333333.000000" lengthAdjust="spacingAndGlyphs"
text-anchor="middle" opacity="0">C6</text>
<g class="stroked-text"><desc>C6</desc>
<path d="M56458333 64332142
L56410714 64379761
L56267857 64427380
L56172619 64427380
L56029761 64379761
L55934523 64284523
L55886904 64189285
L55839285 63998809
L55839285 63855952
L55886904 63665476
L55934523 63570238
L56029761 63475000
L56172619 63427380
L56267857 63427380
L56410714 63475000
L56458333 63522619
" />
<path d="M57315476 63427380
L57125000 63427380
L57029761 63475000
L56982142 63522619
L56886904 63665476
L56839285 63855952
L56839285 64236904
L56886904 64332142
L56934523 64379761
L57029761 64427380
L57220238 64427380
L57315476 64379761
L57363095 64332142
L57410714 64236904
L57410714 63998809
L57363095 63903571
L57315476 63855952
L57220238 63808333
L57029761 63808333
L56934523 63855952
L56886904 63903571
L56839285 63998809
" />
</g><text x="100325000.000000" y="48950000.000000"
textLength="11004524.000000" font-size="1333333.000000" lengthAdjust="spacingAndGlyphs"
text-anchor="middle" opacity="0">FINDER-36.11</text>
<g class="stroked-text"><desc>FINDER-36.11</desc>
<path d="M95491666 48378571
L95158333 48378571
" />
<path d="M95158333 48902380
L95158333 47902380
L95634523 47902380
" />
<path d="M96015476 48902380
L96015476 47902380
" />
<path d="M96491666 48902380
L96491666 47902380
L97063095 48902380
L97063095 47902380
" />
<path d="M97539285 48902380
L97539285 47902380
L97777380 47902380
L97920238 47950000
L98015476 48045238
L98063095 48140476
L98110714 48330952
L98110714 48473809
L98063095 48664285
L98015476 48759523
L97920238 48854761
L97777380 48902380
L97539285 48902380
" />
<path d="M98539285 48378571
L98872619 48378571
" />
<path d="M99015476 48902380
L98539285 48902380
L98539285 47902380
L99015476 47902380
" />
<path d="M100015476 48902380
L99682142 48426190
" />
<path d="M99444047 48902380
L99444047 47902380
L99825000 47902380
L99920238 47950000
L99967857 47997619
L100015476 48092857
L100015476 48235714
L99967857 48330952
L99920238 48378571
L99825000 48426190
L99444047 48426190
" />
<path d="M100444047 48521428
L101205952 48521428
" />
<path d="M101586904 47902380
L102205952 47902380
L101872619 48283333
L102015476 48283333
L102110714 48330952
L102158333 48378571
L102205952 48473809
L102205952 48711904
L102158333 48807142
L102110714 48854761
L102015476 48902380
L101729761 48902380
L101634523 48854761
L101586904 48807142
" />
<path d="M103063095 47902380
L102872619 47902380
L102777380 47950000
L102729761 47997619
L102634523 48140476
L102586904 48330952
L102586904 48711904
L102634523 48807142
L102682142 48854761
L102777380 48902380
L102967857 48902380
L103063095 48854761
L103110714 48807142
L103158333 48711904
L103158333 48473809
L103110714 48378571
L103063095 48330952
L102967857 48283333
L102777380 48283333
L102682142 48330952
L102634523 48378571
L102586904 48473809
" />
<path d="M103586904 48807142
L103634523 48854761
L103586904 48902380
L103539285 48854761
L103586904 48807142
L103586904 48902380
" />
<path d="M104586904 48902380
L104015476 48902380
" />
<path d="M104301190 48902380
L104301190 47902380
L104205952 48045238
L104110714 48140476
L104015476 48188095
" />
<path d="M105539285 48902380
L104967857 48902380
" />
<path d="M105253571 48902380
L105253571 47902380
L105158333 48045238
L105063095 48140476
L104967857 48188095
" />
</g><text x="106600000.000000" y="40425000.000000"
textLength="2147381.000000" font-size="1333333.000000" lengthAdjust="spacingAndGlyphs"
text-anchor="middle" opacity="0">K1</text>
<g class="stroked-text"><desc>K1</desc>
<path d="M105861904 40377380
L105861904 39377380
" />
<path d="M106433333 40377380
L106004761 39805952
" />
<path d="M106433333 39377380
L105861904 39948809
" />
<path d="M107385714 40377380
L106814285 40377380
" />
<path d="M107100000 40377380
L107100000 39377380
L107004761 39520238
L106909523 39615476
L106814285 39663095
" />
</g><text x="74775000.000000" y="53800000.000000"
textLength="2909286.000000" font-size="1333333.000000" lengthAdjust="spacingAndGlyphs"
text-anchor="middle" opacity="0">10k</text>
<g class="stroked-text"><desc>10k</desc>
<path d="M74179761 53752380
L73608333 53752380
" />
<path d="M73894047 53752380
L73894047 52752380
L73798809 52895238
L73703571 52990476
L73608333 53038095
" />
<path d="M74798809 52752380
L74894047 52752380
L74989285 52800000
L75036904 52847619
L75084523 52942857
L75132142 53133333
L75132142 53371428
L75084523 53561904
L75036904 53657142
L74989285 53704761
L74894047 53752380
L74798809 53752380
L74703571 53704761
L74655952 53657142
L74608333 53561904
L74560714 53371428
L74560714 53133333
L74608333 52942857
L74655952 52847619
L74703571 52800000
L74798809 52752380
" />
<path d="M75560714 53752380
L75560714 52752380
" />
<path d="M75655952 53371428
L75941666 53752380
" />
<path d="M75941666 53085714
L75560714 53466666
" />
</g><text x="81635000.000000" y="53850000.000000"
textLength="2147381.000000" font-size="1333333.000000" lengthAdjust="spacingAndGlyphs"
text-anchor="middle" opacity="0">R4</text>
<g class="stroked-text"><desc>R4</desc>
<path d="M81468333 53802380
L81135000 53326190
" />
<path d="M80896904 53802380
L80896904 52802380
L81277857 52802380
L81373095 52850000
L81420714 52897619
L81468333 52992857
L81468333 53135714
L81420714 53230952
L81373095 53278571
L81277857 53326190
L80896904 53326190
" />
<path d="M82325476 53135714
L82325476 53802380
" />
<path d="M82087380 52754761
L81849285 53469047
L82468333 53469047
" />
</g><g transform="rotate(-90.000000 40075000.000000 48400000.000000)">
<text x="40075000.000000" y="48900000.000000"
textLength="3385476.000000" font-size="1333333.000000" lengthAdjust="spacingAndGlyphs"
text-anchor="middle" opacity="0">1.2k</text>
</g>
<g class="stroked-text"><desc>1.2k</desc>
<path d="M40527380 49233333
L40527380 49804761
" />
<path d="M40527380 49519047
L39527380 49519047
L39670238 49614285
L39765476 49709523
L39813095 49804761
" />
<path d="M40432142 48804761
L40479761 48757142
L40527380 48804761
L40479761 48852380
L40432142 48804761
L40527380 48804761
" />
<path d="M39622619 48376190
L39575000 48328571
L39527380 48233333
L39527380 47995238
L39575000 47900000
L39622619 47852380
L39717857 47804761
L39813095 47804761
L39955952 47852380
L40527380 48423809
L40527380 47804761
" />
<path d="M40527380 47376190
L39527380 47376190
" />
<path d="M40146428 47280952
L40527380 46995238
" />
<path d="M39860714 46995238
L40241666 47376190
" />
</g><g transform="rotate(-90.000000 42525000.000000 45725000.000000)">
<text x="42525000.000000" y="46225000.000000"
textLength="2147381.000000" font-size="1333333.000000" lengthAdjust="spacingAndGlyphs"
text-anchor="middle" opacity="0">R1</text>
</g>
<g class="stroked-text"><desc>R1</desc>
<path d="M42977380 45891666
L42501190 46225000
" />
<path d="M42977380 46463095
L41977380 46463095
L41977380 46082142
L42025000 45986904
L42072619 45939285
L42167857 45891666
L42310714 45891666
L42405952 45939285
L42453571 45986904
L42501190 46082142
L42501190 46463095
" />
<path d="M42977380 44939285
L42977380 45510714
" />
<path d="M42977380 45225000
L41977380 45225000
L42120238 45320238
L42215476 45415476
L42263095 45510714
" />
</g><g transform="rotate(-90.000000 81125000.000000 59350000.000000)">
<text x="81125000.000000" y="59850000.000000"
textLength="4814048.000000" font-size="1333333.000000" lengthAdjust="spacingAndGlyphs"
text-anchor="middle" opacity="0">220uF</text>
</g>
<g class="stroked-text"><desc>220uF</desc>
<path d="M80672619 61469047
L80625000 61421428
L80577380 61326190
L80577380 61088095
L80625000 60992857
L80672619 60945238
L80767857 60897619
L80863095 60897619
L81005952 60945238
L81577380 61516666
L81577380 60897619
" />
<path d="M80672619 60516666
L80625000 60469047
L80577380 60373809
L80577380 60135714
L80625000 60040476
L80672619 59992857
L80767857 59945238
L80863095 59945238
L81005952 59992857
L81577380 60564285
L81577380 59945238
" />
<path d="M80577380 59326190
L80577380 59230952
L80625000 59135714
L80672619 59088095
L80767857 59040476
L80958333 58992857
L81196428 58992857
L81386904 59040476
L81482142 59088095
L81529761 59135714
L81577380 59230952
L81577380 59326190
L81529761 59421428
L81482142 59469047
L81386904 59516666
L81196428 59564285
L80958333 59564285
L80767857 59516666
L80672619 59469047
L80625000 59421428
L80577380 59326190
" />
<path d="M80910714 58135714
L81577380 58135714
" />
<path d="M80910714 58564285
L81434523 58564285
L81529761 58516666
L81577380 58421428
L81577380 58278571
L81529761 58183333
L81482142 58135714
" />
<path d="M81053571 57326190
L81053571 57659523
" />
<path d="M81577380 57659523
L80577380 57659523
L80577380 57183333
" />
</g><text x="88150000.000000" y="60200000.000000"
textLength="2147381.000000" font-size="1333333.000000" lengthAdjust="spacingAndGlyphs"
text-anchor="middle" opacity="0">C5</text>
<g class="stroked-text"><desc>C5</desc>
<path d="M87983333 60057142
L87935714 60104761
L87792857 60152380
L87697619 60152380
L87554761 60104761
L87459523 60009523
L87411904 59914285
L87364285 59723809
L87364285 59580952
L87411904 59390476
L87459523 59295238
L87554761 59200000
L87697619 59152380
L87792857 59152380
L87935714 59200000
L87983333 59247619
" />
<path d="M88888095 59152380
L88411904 59152380
L88364285 59628571
L88411904 59580952
L88507142 59533333
L88745238 59533333
L88840476 59580952
L88888095 59628571
L88935714 59723809
L88935714 59961904
L88888095 60057142
L88840476 60104761
L88745238 60152380
L88507142 60152380
L88411904 60104761
L88364285 60057142
" />
</g><text x="35175000.000000" y="43700000.000000"
textLength="2671190.000000" font-size="1333333.000000" lengthAdjust="spacingAndGlyphs"
text-anchor="middle" opacity="0">Mic</text>
<g class="stroked-text"><desc>Mic</desc>
<path d="M34175000 43652380
L34175000 42652380
L34508333 43366666
L34841666 42652380
L34841666 43652380
" />
<path d="M35317857 43652380
L35317857 42985714
" />
<path d="M35317857 42652380
L35270238 42700000
L35317857 42747619
L35365476 42700000
L35317857 42652380
L35317857 42747619
" />
<path d="M36222619 43604761
L36127380 43652380
L35936904 43652380
L35841666 43604761
L35794047 43557142
L35746428 43461904
L35746428 43176190
L35794047 43080952
L35841666 43033333
L35936904 42985714
L36127380 42985714
L36222619 43033333
" />
</g><text x="38275000.000000" y="40000000.000000"
textLength="1909286.000000" font-size="1333333.000000" lengthAdjust="spacingAndGlyphs"
text-anchor="middle" opacity="0">J1</text>
<g class="stroked-text"><desc>J1</desc>
<path d="M37941666 38952380
L37941666 39666666
L37894047 39809523
L37798809 39904761
L37655952 39952380
L37560714 39952380
" />
<path d="M38941666 39952380
L38370238 39952380
" />
<path d="M38655952 39952380
L38655952 38952380
L38560714 39095238
L38465476 39190476
L38370238 39238095
" />
</g><g transform="rotate(-90.000000 50850000.000000 46350000.000000)">
<text x="50850000.000000" y="46850000.000000"
textLength="2195000.000000" font-size="1333333.000000" lengthAdjust="spacingAndGlyphs"
text-anchor="middle" opacity="0">Q1</text>
</g>
<g class="stroked-text"><desc>Q1</desc>
<path d="M51397619 46445238
L51350000 46540476
L51254761 46635714
L51111904 46778571
L51064285 46873809
L51064285 46969047
" />
<path d="M51302380 46921428
L51254761 47016666
L51159523 47111904
L50969047 47159523
L50635714 47159523
L50445238 47111904
L50350000 47016666
L50302380 46921428
L50302380 46730952
L50350000 46635714
L50445238 46540476
L50635714 46492857
L50969047 46492857
L51159523 46540476
L51254761 46635714
L51302380 46730952
L51302380 46921428
" />
<path d="M51302380 45540476
L51302380 46111904
" />
<path d="M51302380 45826190
L50302380 45826190
L50445238 45921428
L50540476 46016666
L50588095 46111904
" />
</g><text x="97075000.000000" y="38750000.000000"
textLength="3052143.000000" font-size="1333333.000000" lengthAdjust="spacingAndGlyphs"
text-anchor="middle" opacity="0">470</text>
<g class="stroked-text"><desc>470</desc>
<path d="M96313095 38035714
L96313095 38702380
" />
<path d="M96075000 37654761
L95836904 38369047
L96455952 38369047
" />
<path d="M96741666 37702380
L97408333 37702380
L96979761 38702380
" />
<path d="M97979761 37702380
L98075000 37702380
L98170238 37750000
L98217857 37797619
L98265476 37892857
L98313095 38083333
L98313095 38321428
L98265476 38511904
L98217857 38607142
L98170238 38654761
L98075000 38702380
L97979761 38702380
L97884523 38654761
L97836904 38607142
L97789285 38511904
L97741666 38321428
L97741666 38083333
L97789285 37892857
L97836904 37797619
L97884523 37750000
L97979761 37702380
" />
</g><text x="97175000.000000" y="36550000.000000"
textLength="2147381.000000" font-size="1333333.000000" lengthAdjust="spacingAndGlyphs"
text-anchor="middle" opacity="0">R8</text>
<g class="stroked-text"><desc>R8</desc>
<path d="M97008333 36502380
L96675000 36026190
" />
<path d="M96436904 36502380
L96436904 35502380
L96817857 35502380
L96913095 35550000
L96960714 35597619
L97008333 35692857
L97008333 35835714
L96960714 35930952
L96913095 35978571
L96817857 36026190
L96436904 36026190
" />
<path d="M97579761 35930952
L97484523 35883333
L97436904 35835714
L97389285 35740476
L97389285 35692857
L97436904 35597619
L97484523 35550000
L97579761 35502380
L97770238 35502380
L97865476 35550000
L97913095 35597619
L97960714 35692857
L97960714 35740476
L97913095 35835714
L97865476 35883333
L97770238 35930952
L97579761 35930952
L97484523 35978571
L97436904 36026190
L97389285 36121428
L97389285 36311904
L97436904 36407142
L97484523 36454761
L97579761 36502380
L97770238 36502380
L97865476 36454761
L97913095 36407142
L97960714 36311904
L97960714 36121428
L97913095 36026190
L97865476 35978571
L97770238 35930952
" />
</g><text x="66800000.000000" y="29340000.000000"
textLength="2909286.000000" font-size="1333333.000000" lengthAdjust="spacingAndGlyphs"
text-anchor="middle" opacity="0">10k</text>
<g class="stroked-text"><desc>10k</desc>
<path d="M66204761 29292380
L65633333 29292380
" />
<path d="M65919047 29292380
L65919047 28292380
L65823809 28435238
L65728571 28530476
L65633333 28578095
" />
<path d="M66823809 28292380
L66919047 28292380
L67014285 28340000
L67061904 28387619
L67109523 28482857
L67157142 28673333
L67157142 28911428
L67109523 29101904
L67061904 29197142
L67014285 29244761
L66919047 29292380
L66823809 29292380
L66728571 29244761
L66680952 29197142
L66633333 29101904
L66585714 28911428
L66585714 28673333
L66633333 28482857
L66680952 28387619
L66728571 28340000
L66823809 28292380
" />
<path d="M67585714 29292380
L67585714 28292380
" />
<path d="M67680952 28911428
L67966666 29292380
" />
<path d="M67966666 28625714
L67585714 29006666
" />
</g><text x="65050000.000000" y="33790000.000000"
textLength="2386429.000000" font-size="1040000.000000" lengthAdjust="spacingAndGlyphs"
text-anchor="middle" opacity="0">RV2</text>
<g class="stroked-text"><desc>RV2</desc>
<path d="M64585714 33752857
L64325714 33381428
" />
<path d="M64140000 33752857
L64140000 32972857
L64437142 32972857
L64511428 33010000
L64548571 33047142
L64585714 33121428
L64585714 33232857
L64548571 33307142
L64511428 33344285
L64437142 33381428
L64140000 33381428
" />
<path d="M64808571 32972857
L65068571 33752857
L65328571 32972857
" />
<path d="M65551428 33047142
L65588571 33010000
L65662857 32972857
L65848571 32972857
L65922857 33010000
L65960000 33047142
L65997142 33121428
L65997142 33195714
L65960000 33307142
L65514285 33752857
L65997142 33752857
" />
</g><g transform="rotate(-90.000000 39625000.000000 60150000.000000)">
<text x="39625000.000000" y="60650000.000000"
textLength="3052143.000000" font-size="1333333.000000" lengthAdjust="spacingAndGlyphs"
text-anchor="middle" opacity="0">100</text>
</g>
<g class="stroked-text"><desc>100</desc>
<path d="M40077380 60816666
L40077380 61388095
" />
<path d="M40077380 61102380
L39077380 61102380
L39220238 61197619
L39315476 61292857
L39363095 61388095
" />
<path d="M39077380 60197619
L39077380 60102380
L39125000 60007142
L39172619 59959523
L39267857 59911904
L39458333 59864285
L39696428 59864285
L39886904 59911904
L39982142 59959523
L40029761 60007142
L40077380 60102380
L40077380 60197619
L40029761 60292857
L39982142 60340476
L39886904 60388095
L39696428 60435714
L39458333 60435714
L39267857 60388095
L39172619 60340476
L39125000 60292857
L39077380 60197619
" />
<path d="M39077380 59245238
L39077380 59150000
L39125000 59054761
L39172619 59007142
L39267857 58959523
L39458333 58911904
L39696428 58911904
L39886904 58959523
L39982142 59007142
L40029761 59054761
L40077380 59150000
L40077380 59245238
L40029761 59340476
L39982142 59388095
L39886904 59435714
L39696428 59483333
L39458333 59483333
L39267857 59435714
L39172619 59388095
L39125000 59340476
L39077380 59245238
" />
</g><g transform="rotate(-90.000000 42375000.000000 59600000.000000)">
<text x="42375000.000000" y="60100000.000000"
textLength="2147381.000000" font-size="1333333.000000" lengthAdjust="spacingAndGlyphs"
text-anchor="middle" opacity="0">R7</text>
</g>
<g class="stroked-text"><desc>R7</desc>
<path d="M42827380 59766666
L42351190 60100000
" />
<path d="M42827380 60338095
L41827380 60338095
L41827380 59957142
L41875000 59861904
L41922619 59814285
L42017857 59766666
L42160714 59766666
L42255952 59814285
L42303571 59861904
L42351190 59957142
L42351190 60338095
" />
<path d="M41827380 59433333
L41827380 58766666
L42827380 59195238
" />
</g></g>
<g style="fill:#000000; fill-opacity:0.0; 
stroke:#000000; stroke-width:100000.000000; stroke-opacity:1; 
stroke-linecap:round; stroke-linejoin:round;">
<path d="M117105000 50370000
L117105000 45290000
" />
<path d="M119645000 49735000
L119010000 50370000
" />
<path d="M119645000 45290000
L119645000 49735000
" />
<path d="M117105000 45290000
L119645000 45290000
" />
<path d="M119010000 50370000
L117105000 50370000
" />
<path d="M84591395 33812500
L85091395 33812500
" />
<path d="M84841395 33562500
L84841395 34062500
" />
<circle cx="86725000.000000" cy="34900000.000000" r="2500000.000000" /> 
<path d="M56755000 49715000
L56755000 44365000
" />
<path d="M56755000 44365000
L66915000 44365000
" />
<path d="M66915000 44365000
L66915000 50715000
" />
<path d="M57755000 50715000
L56755000 49715000
" />
<path d="M66915000 50715000
L57755000 50715000
" />
<path d="M54125000 40855000
L54125000 41515000
" />
<path d="M54125000 48475000
L54125000 47815000
" />
<path d="M52875000 47815000
L55375000 47815000
" />
<path d="M55375000 47815000
L55375000 41515000
" />
<path d="M55375000 41515000
L52875000 41515000
" />
<path d="M52875000 41515000
L52875000 47815000
" />
<path d="M39695000 52080000
L39695000 57160000
" />
<path d="M37155000 52715000
L37790000 52080000
" />
<path d="M37790000 52080000
L39695000 52080000
" />
<path d="M37155000 57160000
L37155000 52715000
" />
<path d="M39695000 57160000
L37155000 57160000
" />
<path d="M69775000 40840000
L72275000 40840000
" />
<path d="M71025000 33880000
L71025000 34540000
" />
<path d="M69775000 34540000
L69775000 40840000
" />
<path d="M72275000 34540000
L69775000 34540000
" />
<path d="M71025000 41500000
L71025000 40840000
" />
<path d="M72275000 40840000
L72275000 34540000
" />
<path d="M65625000 54450000
L65625000 59150000
" />
<path d="M65625000 59150000
L68125000 59150000
" />
<path d="M68125000 54450000
L65625000 54450000
" />
<path d="M68125000 59150000
L68125000 54450000
" />
<path d="M48200000 52400000
L44700000 52400000
" />
<path d="M44700000 56550000
L44700000 50250000
" />
<path d="M48200000 56550000
L44700000 56550000
" />
<path d="M44700000 54400000
L48200000 54400000
" />
<path d="M44700000 52400000
L44700000 54400000
" />
<path d="M44700000 50250000
L48200000 50250000
" />
<path d="M48200000 54400000
L48200000 52400000
" />
<path d="M48200000 50250000
L48200000 56550000
" />
<path d="M58125000 40350000
L62825000 40350000
" />
<path d="M62825000 37850000
L58125000 37850000
" />
<path d="M58125000 37850000
L58125000 40350000
" />
<path d="M62825000 40350000
L62825000 37850000
" />
<circle cx="51900000.000000" cy="37700000.000000" r="2000000.000000" /> 
<circle cx="59825000.000000" cy="33000000.000000" r="2000000.000000" /> 
<path d="M83715000 43065000
L83715000 49415000
" />
<path d="M83715000 49415000
L74555000 49415000
" />
<path d="M73555000 48415000
L73555000 43065000
" />
<path d="M74555000 49415000
L73555000 48415000
" />
<path d="M73555000 43065000
L83715000 43065000
" />
<path d="M55625000 55825000
L55625000 53325000
" />
<path d="M55625000 53325000
L50925000 53325000
" />
<path d="M50925000 55825000
L55625000 55825000
" />
<path d="M50925000 53325000
L50925000 55825000
" />
<path d="M72658605 48287500
L72158605 48287500
" />
<path d="M72408605 48537500
L72408605 48037500
" />
<circle cx="70525000.000000" cy="47200000.000000" r="2500000.000000" /> 
<path d="M50625000 43550000
L50625000 41050000
" />
<path d="M50625000 41050000
L45925000 41050000
" />
<path d="M45925000 43550000
L50625000 43550000
" />
<path d="M45925000 41050000
L45925000 43550000
" />
<path d="M63462500 58211283
L63462500 58711283
" />
<path d="M63712500 58461283
L63212500 58461283
" />
<circle cx="62375000.000000" cy="60344888.000000" r="2500000.000000" /> 
<path d="M70325000 51750000
L70325000 58050000
" />
<path d="M71575000 58710000
L71575000 58050000
" />
<path d="M71575000 51090000
L71575000 51750000
" />
<path d="M72825000 58050000
L72825000 51750000
" />
<path d="M70325000 58050000
L72825000 58050000
" />
<path d="M72825000 51750000
L70325000 51750000
" />
<path d="M50912500 58206171
L50412500 58206171
" />
<path d="M50662500 57956171
L50662500 58456171
" />
<circle cx="49575000.000000" cy="60089776.000000" r="2500000.000000" /> 
<path d="M85375000 48320000
L88975000 48320000
" />
<path d="M88975000 40720000
L85375000 40720000
" />
<path d="M85375000 40720000
L85375000 48320000
" />
<path d="M85375000 47080000
L88975000 47080000
" />
<path d="M88975000 48320000
L88975000 40720000
" />
<path d="M87175000 39440000
L87175000 40720000
" />
<path d="M85375000 47180000
L88975000 47180000
" />
<path d="M87175000 49600000
L87175000 48320000
" />
<path d="M85375000 47280000
L88975000 47280000
" />
<path d="M74475000 36600000
L74475000 39100000
" />
<path d="M81435000 37850000
L80775000 37850000
" />
<path d="M80775000 39100000
L80775000 36600000
" />
<path d="M74475000 39100000
L80775000 39100000
" />
<path d="M80775000 36600000
L74475000 36600000
" />
<path d="M73815000 37850000
L74475000 37850000
" />
<path d="M57812500 58461282
L57312500 58461282
" />
<path d="M57562500 58211282
L57562500 58711282
" />
<circle cx="56475000.000000" cy="60344887.000000" r="2500000.000000" /> 
<path d="M90325000 56300000
L90325000 41100000
" />
<path d="M90325000 41100000
L109325000 41100000
" />
<path d="M109325000 56300000
L90325000 56300000
" />
<path d="M109325000 41100000
L109325000 56300000
" />
<path d="M84785000 54600000
L84785000 52100000
" />
<path d="M85445000 53350000
L84785000 53350000
" />
<path d="M78485000 52100000
L78485000 54600000
" />
<path d="M77825000 53350000
L78485000 53350000
" />
<path d="M78485000 54600000
L84785000 54600000
" />
<path d="M84785000 52100000
L78485000 52100000
" />
<path d="M42525000 49535000
L42525000 48875000
" />
<path d="M41275000 48875000
L43775000 48875000
" />
<path d="M41275000 42575000
L41275000 48875000
" />
<path d="M43775000 48875000
L43775000 42575000
" />
<path d="M42525000 41915000
L42525000 42575000
" />
<path d="M43775000 42575000
L41275000 42575000
" />
<path d="M84712500 56333655
L84712500 57083655
" />
<path d="M85087500 56708655
L84337500 56708655
" />
<circle cx="83075000.000000" cy="59544888.000000" r="3750000.000000" /> 
<path d="M37355000 45885000
L37355000 41440000
" />
<path d="M39895000 40805000
L39895000 45885000
" />
<path d="M37990000 40805000
L39895000 40805000
" />
<path d="M37355000 41440000
L37990000 40805000
" />
<path d="M39895000 45885000
L37355000 45885000
" />
<path d="M45050000 44900000
L45050000 48400000
" />
<path d="M45046375.182657 48423624.817343 A2480000.000000 2480000.000000 0.0 0 0 49280000.000000 46670000.000000" />
<path d="M49280000.000000 46670000.000000 A2480000.000000 2480000.000000 0.0 0 0 45046375.182657 44916375.182657" />
<path d="M94025000 36950000
L94025000 39450000
" />
<path d="M94025000 39450000
L100325000 39450000
" />
<path d="M100325000 39450000
L100325000 36950000
" />
<path d="M93365000 38200000
L94025000 38200000
" />
<path d="M100325000 36950000
L94025000 36950000
" />
<path d="M100985000 38200000
L100325000 38200000
" />
<circle cx="51275000.000000" cy="50700000.000000" r="2000000.000000" /> 
<path d="M66800000 36550000
L63300000 36550000
" />
<path d="M63300000 34400000
L66800000 34400000
" />
<path d="M66800000 30250000
L66800000 36550000
" />
<path d="M63300000 32400000
L63300000 34400000
" />
<path d="M66800000 32400000
L63300000 32400000
" />
<path d="M63300000 36550000
L63300000 30250000
" />
<path d="M63300000 30250000
L66800000 30250000
" />
<path d="M66800000 34400000
L66800000 32400000
" />
<path d="M41125000 56450000
L41125000 62750000
" />
<path d="M42375000 55790000
L42375000 56450000
" />
<path d="M42375000 63410000
L42375000 62750000
" />
<path d="M43625000 56450000
L41125000 56450000
" />
<path d="M41125000 62750000
L43625000 62750000
" />
<path d="M43625000 62750000
L43625000 56450000
" />
<g >
</g>
<g >
</g>
<g >
</g>
<g >
</g>
<g >
</g>
<g >
</g>
<g >
</g>
<g >
</g>
<g >
</g>
<g >
</g>
<g >
</g>
<g >
</g>
<g >
</g>
<g >
</g>
<g >
</g>
<g >
</g>
<g >
</g>
<g >
</g>
<g >
</g>
<g >
</g>
<g >
</g>
<g >
</g>
<g >
</g>
<g >
</g>
<g >
</g>
<g >
</g>
<g >
</g>
<g >
</g>
<g >
</g>
<g >
</g>
<g >
</g>
<g >
</g>
<g >
</g>
<g >
</g>
<g >
</g>
</g> 
</svg>
